<svg width="16" height="16" viewBox="0 0 16 16" xmlns="http://www.w3.org/2000/svg">
  <path fill-rule="evenodd" clip-rule="evenodd" d="M8 1C4.136 1 1 4.136 1 8C1 11.864 4.136 15 8 15C11.864 15 15 11.864 15 8C15 4.136 11.864 1 8 1ZM8 13.75C4.82 13.75 2.25 11.18 2.25 8C2.25 4.82 4.82 2.25 8 2.25C11.18 2.25 13.75 4.82 13.75 8C13.75 11.18 11.18 13.75 8 13.75Z" fill="currentColor"/>
  <path fill-rule="evenodd" clip-rule="evenodd" d="M8 4C8.414 4 8.75 4.336 8.75 4.75V7.805L10.47 9.53C10.763 9.823 10.763 10.297 10.47 10.59C10.177 10.883 9.703 10.883 9.41 10.59L7.47 8.65C7.336 8.516 7.25 8.329 7.25 8.125V4.75C7.25 4.336 7.586 4 8 4Z" fill="currentColor"/>
</svg>